<?xml version="1.0" standalone="no"?> 
<svg width="1000" height="100%" version="1.1" xmlns="http://www.w3.org/2000/svg">
<rect x="33.4546460101676" width="52.9801386934368" y="150" height="145" style="fill:rgb(0,0,255);fill-opacity:0.5;stroke-width:1;stroke:rgb(0,0,0)"/>
<text transform="translate(39.4546460101676,154) rotate(90)">acpi_pci_root_init</text>
<rect x="100.082329915664" width="17.1721245150941" y="150" height="145" style="fill:rgb(0,255,0);fill-opacity:0.5;stroke-width:1;stroke:rgb(0,0,0)"/>
<text transform="translate(106.082329915664,154) rotate(90)">init_acpi_pm_clocksource</text>
<rect x="119.637177508431" width="575.911481723754" y="150" height="145" style="fill:rgb(255,0,20);fill-opacity:0.5;stroke-width:1;stroke:rgb(0,0,0)"/>
<text transform="translate(125.637177508431,154) rotate(90)">populate_rootfs</text>
<rect x="704.024764964326" width="26.4373300177909" y="150" height="145" style="fill:rgb(255,255,20);fill-opacity:0.5;stroke-width:1;stroke:rgb(0,0,0)"/>
<text transform="translate(710.024764964326,154) rotate(90)">pci_init</text>
<rect x="730.84022601971" width="176.36280363739" y="150" height="145" style="fill:rgb(255,0,255);fill-opacity:0.5;stroke-width:1;stroke:rgb(0,0,0)"/>
<text transform="translate(736.84022601971,154) rotate(90)">isapnp_init</text>
<rect x="910.083791114549" width="34.3517121427724" y="150" height="145" style="fill:rgb(0,255,255);fill-opacity:0.5;stroke-width:1;stroke:rgb(0,0,0)"/>
<text transform="translate(916.083791114549,154) rotate(90)">pty_init</text>
<text transform="translate(0,89) rotate(90)">0.61</text>
<text transform="translate(63.3333333333333,89) rotate(90)">0.73</text>
<text transform="translate(126.666666666667,89) rotate(90)">0.86</text>
<text transform="translate(190,89) rotate(90)">0.99</text>
<text transform="translate(253.333333333333,89) rotate(90)">1.12</text>
<text transform="translate(316.666666666667,89) rotate(90)">1.24</text>
<text transform="translate(380,89) rotate(90)">1.37</text>
<text transform="translate(443.333333333333,89) rotate(90)">1.5</text>
<text transform="translate(506.666666666667,89) rotate(90)">1.63</text>
<text transform="translate(570,89) rotate(90)">1.75</text>
<text transform="translate(633.333333333333,89) rotate(90)">1.88</text>
<text transform="translate(696.666666666667,89) rotate(90)">2.01</text>
<text transform="translate(760,89) rotate(90)">2.13</text>
<text transform="translate(823.333333333333,89) rotate(90)">2.26</text>
<text transform="translate(886.666666666667,89) rotate(90)">2.39</text>
</svg>
